<svg xmlns="http://www.w3.org/2000/svg" viewBox="0 0 800 200" fill="none">
    <defs>
          <linearGradient id="grad1" x1="0%" y1="0%" x2="100%" y2="100%">
                  <stop offset="0%" style="stop-color:#6366f1;stop-opacity:1" />
                  <stop offset="50%" style="stop-color:#8b5cf6;stop-opacity:1" />
                  <stop offset="100%" style="stop-color:#a78bfa;stop-opacity:1" />
          </linearGradient>
          <linearGradient id="grad2" x1="0%" y1="0%" x2="100%" y2="0%">
                  <stop offset="0%" style="stop-color:#6366f1;stop-opacity:1" />
                  <stop offset="100%" style="stop-color:#a78bfa;stop-opacity:1" />
          </linearGradient>
    </defs>
    <g transform="translate(30, 25)">
          <circle cx="75" cy="75" r="70" stroke="url(#grad1)" stroke-width="3" fill="none" opacity="0.3"/>
          <circle cx="75" cy="75" r="55" stroke="url(#grad1)" stroke-width="2" fill="none" opacity="0.2"/>
          <circle cx="75" cy="35" r="8" fill="url(#grad1)"/>
          <circle cx="40" cy="65" r="8" fill="url(#grad1)"/>
          <circle cx="110" cy="65" r="8" fill="url(#grad1)"/>
          <circle cx="75" cy="75" r="12" fill="url(#grad1)"/>
          <circle cx="50" cy="105" r="8" fill="url(#grad1)"/>
          <circle cx="100" cy="105" r="8" fill="url(#grad1)"/>
          <circle cx="75" cy="120" r="8" fill="url(#grad1)"/>
          <line x1="75" y1="35" x2="75" y2="75" stroke="url(#grad2)" stroke-width="1.5" opacity="0.5"/>
          <line x1="40" y1="65" x2="75" y2="75" stroke="url(#grad2)" stroke-width="1.5" opacity="0.5"/>
          <line x1="110" y1="65" x2="75" y2="75" stroke="url(#grad2)" stroke-width="1.5" opacity="0.5"/>
          <line x1="75" y1="75" x2="50" y2="105" stroke="url(#grad2)" stroke-width="1.5" opacity="0.5"/>
          <line x1="75" y1="75" x2="100" y2="105" stroke="url(#grad2)" stroke-width="1.5" opacity="0.5"/>
          <line x1="50" y1="105" x2="75" y2="120" stroke="url(#grad2)" stroke-width="1.5" opacity="0.5"/>
          <line x1="100" y1="105" x2="75" y2="120" stroke="url(#grad2)" stroke-width="1.5" opacity="0.5"/>
          <line x1="40" y1="65" x2="75" y2="35" stroke="url(#grad2)" stroke-width="1" opacity="0.3"/>
          <line x1="110" y1="65" x2="75" y2="35" stroke="url(#grad2)" stroke-width="1" opacity="0.3"/>
          <line x1="40" y1="65" x2="50" y2="105" stroke="url(#grad2)" stroke-width="1" opacity="0.3"/>
          <line x1="110" y1="65" x2="100" y2="105" stroke="url(#grad2)" stroke-width="1" opacity="0.3"/>
    </g>
    <text x="200" y="85" font-family="system-ui, -apple-system, sans-serif" font-size="64" font-weight="700" fill="url(#grad1)">CAIMS</text>
    <text x="200" y="130" font-family="system-ui, -apple-system, sans-serif" font-size="16" fill="#94a3b8" letter-spacing="2">CONSCIOUSNESS &amp; ALIGNMENT INTELLIGENCE</text>
    <text x="200" y="155" font-family="system-ui, -apple-system, sans-serif" font-size="16" fill="#94a3b8" letter-spacing="2">MEASUREMENT SYSTEM</text>
    <line x1="200" y1="95" x2="700" y2="95" stroke="url(#grad2)" stroke-width="1" opacity="0.3"/>
</svg>
